<?xml version="1.0" encoding="iso-8859-1"?>
<!-- Generator: Adobe Illustrator 19.0.1, SVG Export Plug-In . SVG Version: 6.00 Build 0)  -->
<svg version="1.1" xmlns="http://www.w3.org/2000/svg" xmlns:xlink="http://www.w3.org/1999/xlink" x="0px" y="0px"
	 viewBox="0 0 128 128" style="enable-background:new 0 0 128 128;" xml:space="preserve">
<g id="_x31_">
	<path style="fill:#E1DEFD;" d="M125.078,85.272l-10.333,3.127l-58.12,17.618c-0.65,0.191-1.356,0.09-1.916-0.291L14.374,78.301
		L3.436,70.859c-1.558-1.065-1.188-3.452,0.616-4.001l3.382-0.16c0.65-0.191,47.51,31.295,48.07,31.676l66.703-20.214
		C123.764,79.214,126.882,84.722,125.078,85.272z M122.206,70.16L55.504,90.374c-0.56-0.381-47.42-31.867-48.07-31.676l-3.382,0.16
		c-1.804,0.549-2.174,2.936-0.616,4.001l10.938,7.442l40.334,27.424c0.56,0.381,1.266,0.482,1.916,0.291l58.12-17.618l10.333-3.127
		C126.882,76.723,123.764,71.214,122.206,70.16z M122.206,60.827L55.504,81.041c-0.56-0.381-47.42-31.867-48.07-31.676l-3.382,0.16
		c-1.804,0.549-2.174,2.936-0.616,4.001l10.938,7.442l40.334,27.424c0.56,0.381,1.266,0.482,1.916,0.291l58.12-17.618l10.333-3.127
		C126.882,67.389,123.764,61.881,122.206,60.827z"/>
	<path style="fill:#675BF5;" d="M126.428,54.83L75.162,19.963c-0.893-0.6-1.987-0.76-3.04-0.453L3.67,40.256
		c-1.333,0.4-2.293,1.507-2.507,2.88c-0.213,1.373,0.373,2.707,1.52,3.493l2.467,1.68l-2.613,0.787c-1.32,0.4-2.28,1.507-2.493,2.88
		c-0.213,1.373,0.373,2.707,1.52,3.493l2.813,1.92L2.55,57.936c-1.333,0.413-2.293,1.52-2.507,2.893
		c-0.213,1.36,0.373,2.707,1.52,3.493l2.813,1.907l-1.827,0.56c-1.333,0.4-2.293,1.507-2.507,2.88
		c-0.213,1.373,0.373,2.707,1.52,3.493l51.279,34.866c0.587,0.413,1.293,0.613,2,0.613c0.347,0,0.707-0.04,1.053-0.147
		l68.452-20.746c1.333-0.4,2.28-1.507,2.493-2.88c0.2-1.36-0.36-2.667-1.467-3.453l-1.413-1.2l-1.04-0.88l0.333-0.107l1.093-0.32
		c1.333-0.413,2.28-1.52,2.493-2.893c0.2-1.347-0.36-2.667-1.467-3.44l-2.453-2.08l1.427-0.44c1.333-0.4,2.28-1.507,2.493-2.88
		c0.2-1.36-0.36-2.667-1.467-3.453l-2.053-1.733l-0.107-0.093l0.027-0.013l2.227-0.667c1.333-0.4,2.28-1.52,2.493-2.893
		C128.161,56.95,127.575,55.616,126.428,54.83z M124.201,75.616c-0.027,0.173-0.133,0.587-0.627,0.733L55.123,97.096
		c-0.267,0.08-0.56,0.04-0.787-0.12L3.07,62.109c-0.427-0.28-0.413-0.707-0.387-0.88c0.027-0.173,0.133-0.587,0.64-0.733
		l3.893-1.187l45.626,31.026c0.88,0.613,1.987,0.773,3.053,0.467l63.986-19.386l3.813,3.227l0.12,0.093
		C124.241,75.016,124.228,75.443,124.201,75.616z M123.695,83.496l0.12,0.08c0.427,0.293,0.413,0.72,0.387,0.893
		c-0.027,0.173-0.133,0.587-0.627,0.733l-68.452,20.733h-0.013c-0.267,0.08-0.547,0.04-0.773-0.107L3.07,70.963
		c-0.427-0.293-0.413-0.72-0.387-0.893c0-0.013,0-0.027,0.013-0.04c0,0,0,0,0-0.013c0.04-0.187,0.16-0.547,0.627-0.68l3.893-1.173
		l45.626,31.026c0.88,0.6,1.987,0.773,3.053,0.467l63.986-19.4L123.695,83.496z M123.695,65.803l0.12,0.08
		c0.427,0.293,0.413,0.72,0.387,0.893c-0.027,0.173-0.133,0.587-0.627,0.733L55.123,88.256c-0.267,0.067-0.56,0.027-0.787-0.12
		L3.377,53.47l-0.307-0.2c-0.267-0.187-0.36-0.413-0.387-0.613c-0.013-0.12-0.013-0.213,0-0.28c0.027-0.16,0.133-0.573,0.64-0.733
		L7.99,50.23l45.973,31.266c0.88,0.6,1.987,0.773,3.053,0.467l63.159-19.146L123.695,65.803z M125.321,57.923
		c-0.027,0.173-0.133,0.587-0.627,0.747L56.256,79.402c-0.28,0.08-0.573,0.04-0.8-0.12L4.19,44.43
		c-0.427-0.293-0.413-0.72-0.387-0.893c0.027-0.173,0.133-0.587,0.64-0.733l68.439-20.746c0.093-0.027,0.173-0.04,0.267-0.04
		c0.187,0,0.36,0.053,0.507,0.16l51.279,34.866C125.361,57.336,125.348,57.763,125.321,57.923z"/>
</g>
<g id="Layer_1">
</g>
</svg>
